<?xml version="1.0" encoding="UTF-8"?><svg id="Capa_1" xmlns="http://www.w3.org/2000/svg" viewBox="0 0 150 150"><defs><style>.cls-1{fill:#1d1d1b;}</style></defs><path class="cls-1" d="M130.92,33.06v.5h-26.89c-4.81,0-8.73-4.17-8.73-9.29V1.77h.54s-70.81,0-70.81,0c-3.36,0-6.08,2.72-6.08,6.08V141.84c0,3.36,2.72,6.08,6.08,6.08H124.84c3.36,0,6.08-2.72,6.08-6.08V33.06h0Zm-95.51-3.59h41.56v4H35.41v-4Zm0,22.05H114.47v4H35.41v-4ZM114.47,121.65h-46.31v-4h46.31v4Zm0-22.05H35.41v-4H114.47v4Zm.27-18.96H35.14v-10.18H114.73v10.18Z"/><path class="cls-1" d="M104.33,32.21h26.03L96.69,2.18V24.02c0,4.52,3.43,8.19,7.64,8.19Z"/></svg>