<?xml version="1.0" encoding="UTF-8"?><svg id="Capa_1" xmlns="http://www.w3.org/2000/svg" viewBox="0 0 150 150"><defs><style>.cls-1,.cls-2,.cls-3{fill:#1d1d1b;}.cls-2,.cls-3{stroke:#1d1e1b;}.cls-2,.cls-3,.cls-4{stroke-miterlimit:10;}.cls-2,.cls-4{stroke-width:2px;}.cls-4{fill:none;stroke:#1d1d1b;}</style></defs><g><path class="cls-4" d="M128.5,57.32H8.2c-2.97,0-5.38,2.6-5.38,5.8v10.82H133.89v-10.82c0-3.2-2.41-5.8-5.38-5.8Z"/><path class="cls-4" d="M2.82,85.21v54.49c0,3.2,2.41,5.8,5.38,5.8h120.3c2.97,0,5.38-2.6,5.38-5.8v-54.49H2.82Zm13.07,14.58H87.67v3.91H15.89v-3.91Zm26.56,26.02H15.89v-3.91h26.56v3.91Zm75.87,0H49.91v-3.91H118.32v3.91Z"/></g><g><path class="cls-1" d="M21.05,57.32h107.46l2.24,.53,1.99,1.69,1.05,2.46,.1,2.16v35.59h7.97c2.94,0,5.32-2.57,5.32-5.73V41.35H21.05v15.97Z"/><path class="cls-1" d="M141.86,13.5H26.37c-2.94,0-5.32,2.57-5.32,5.73v10.84h126.13v-10.84c0-3.17-2.38-5.73-5.32-5.73Z"/></g><rect class="cls-2" x="2.82" y="73.94" width="131.07" height="11.27"/><rect class="cls-3" x="15.89" y="99.79" width="71.78" height="3.91"/><rect class="cls-3" x="15.89" y="121.91" width="26.56" height="3.91"/><rect class="cls-3" x="49.91" y="121.91" width="68.41" height="3.91"/></svg>