<?xml version="1.0" encoding="UTF-8"?><svg id="Capa_1" xmlns="http://www.w3.org/2000/svg" viewBox="0 0 150 150"><defs><style>.cls-1,.cls-2{fill:#231f20;}.cls-3{fill:#070001;}.cls-2,.cls-4{stroke-width:2px;}.cls-2,.cls-4,.cls-5{stroke:#231f20;stroke-miterlimit:10;}.cls-4,.cls-5{fill:none;}</style></defs><g><line class="cls-2" x1="54.9" y1="119.88" x2="95.1" y2="119.88"/><g><rect class="cls-4" x="3.74" y="12.6" width="142.52" height="87.69" rx="3.77" ry="3.77"/><line class="cls-5" x1="3.74" y1="86.24" x2="146.26" y2="86.24"/><rect class="cls-1" x="63.31" y="103.26" width="23.38" height="16.62"/><path class="cls-1" d="M3.74,86.24v8.46c0,3.09,2.5,5.59,5.59,5.59H140.67c3.09,0,5.59-2.5,5.59-5.59v-8.46H3.74Zm71.26,10.57c-1.96,0-3.55-1.59-3.55-3.55s1.59-3.55,3.55-3.55,3.54,1.59,3.54,3.55-1.59,3.55-3.54,3.55Z"/></g></g><g><polyline class="cls-3" points="87.19 130.63 33.55 130.58 33.49 125.46 23.36 133.59 33.78 141.81 33.95 137.23 87.19 137.28"/><polyline class="cls-3" points="62.84 130.63 116.48 130.58 116.53 125.46 126.07 133.59 116.25 141.81 116.08 137.23 62.84 137.28"/></g></svg>